<?xml version="1.0" encoding="UTF-8"?>
<svg xmlns="http://www.w3.org/2000/svg" xmlns:xlink="http://www.w3.org/1999/xlink" width="123px" height="123px" viewBox="0 0 123 123" version="1.1">
<g id="surface1">
<path style=" stroke:none;fill-rule:nonzero;fill:rgb(99.215686%,80.392158%,37.64706%);fill-opacity:1;" d="M 98.976562 25.824219 L 91.167969 23.664062 L 98.976562 21.621094 L 101.140625 13.8125 L 103.300781 21.621094 L 110.988281 23.664062 L 103.300781 25.824219 L 101.140625 33.632812 Z M 14.894531 94.171875 L 9.96875 92.96875 L 14.894531 91.769531 L 15.976562 86.84375 L 17.175781 91.769531 L 22.101562 92.96875 L 17.175781 94.171875 L 15.976562 99.097656 Z M 14.894531 94.171875 "/>
<path style=" stroke:none;fill-rule:nonzero;fill:rgb(99.215686%,80.392158%,37.64706%);fill-opacity:1;" d="M 108.226562 33.992188 L 105.101562 33.273438 L 108.226562 32.550781 L 108.828125 29.429688 L 109.546875 32.550781 L 112.671875 33.273438 L 109.546875 33.992188 L 108.828125 36.996094 Z M 13.574219 53.570312 L 10.691406 52.972656 L 13.574219 52.25 L 14.171875 49.367188 L 14.894531 52.25 L 17.777344 52.972656 L 14.894531 53.570312 L 14.171875 56.453125 Z M 13.574219 53.570312 "/>
<path style=" stroke:none;fill-rule:nonzero;fill:rgb(33.333334%,27.450982%,79.607844%);fill-opacity:1;" d="M 12.613281 30.628906 C 12.613281 31.226562 13.097656 31.710938 13.695312 31.710938 C 14.289062 31.710938 14.773438 31.226562 14.773438 30.628906 C 14.773438 30.03125 14.289062 29.546875 13.695312 29.546875 C 13.097656 29.546875 12.613281 30.03125 12.613281 30.628906 Z M 12.613281 30.628906 "/>
<path style=" stroke:none;fill-rule:nonzero;fill:rgb(33.333334%,27.450982%,79.607844%);fill-opacity:1;" d="M 109.546875 92.371094 C 107.886719 92.371094 106.542969 91.027344 106.542969 89.367188 C 106.542969 87.707031 107.886719 86.363281 109.546875 86.363281 C 111.207031 86.363281 112.550781 87.707031 112.550781 89.367188 C 112.550781 91.027344 111.207031 92.371094 109.546875 92.371094 Z M 109.546875 88.046875 C 108.882812 88.046875 108.34375 88.582031 108.34375 89.246094 C 108.34375 89.910156 108.882812 90.449219 109.546875 90.449219 C 110.210938 90.449219 110.75 89.910156 110.75 89.246094 C 110.75 88.582031 110.210938 88.046875 109.546875 88.046875 Z M 109.546875 88.046875 "/>
<path style=" stroke:none;fill-rule:nonzero;fill:rgb(68.627453%,73.725492%,95.294118%);fill-opacity:1;" d="M 109.667969 65.101562 C 107.382812 63.300781 104.261719 61.742188 100.296875 60.296875 C 100.058594 61.140625 99.578125 61.980469 98.734375 62.820312 L 98.734375 63.542969 C 99.570312 63.785156 100.347656 64.195312 101.019531 64.742188 C 101.859375 65.464844 102.21875 66.304688 102.101562 67.023438 C 101.980469 67.746094 101.257812 68.347656 100.179688 68.707031 L 97.175781 68.707031 C 97.535156 69.667969 97.773438 70.628906 97.773438 71.351562 C 97.773438 72.070312 97.296875 73.273438 96.574219 73.632812 L 95.734375 73.871094 C 95.132812 73.871094 94.53125 73.632812 93.929688 73.152344 C 93.304688 72.652344 92.777344 72.039062 92.371094 71.351562 L 91.410156 71.589844 C 90.570312 73.03125 89.367188 73.871094 88.285156 73.871094 L 87.445312 73.871094 C 87.078125 73.695312 86.78125 73.398438 86.605469 73.03125 C 81.074219 74.390625 75.453125 75.351562 69.789062 75.914062 C 66.0625 76.273438 62.339844 76.515625 58.738281 76.515625 C 47.804688 76.515625 37.476562 74.832031 28.109375 71.46875 C 25.945312 70.75 24.503906 68.585938 24.503906 66.0625 L 24.503906 59.457031 C 19.339844 61.019531 15.253906 62.941406 12.613281 65.101562 C 9.96875 67.265625 8.890625 69.1875 8.890625 71.46875 C 8.890625 73.75 10.089844 75.914062 12.613281 77.835938 C 15.132812 79.757812 19.339844 81.921875 24.503906 83.480469 C 34.234375 86.484375 47.207031 88.164062 61.019531 88.164062 C 74.832031 88.164062 87.804688 86.484375 97.535156 83.480469 C 102.820312 81.921875 106.785156 80 109.425781 77.835938 C 112.070312 75.671875 113.148438 73.75 113.148438 71.46875 C 113.148438 69.1875 112.070312 67.023438 109.667969 65.101562 Z M 109.667969 65.101562 "/>
<path style=" stroke:none;fill-rule:nonzero;fill:rgb(33.333334%,27.450982%,79.607844%);fill-opacity:1;" d="M 111.109375 63.179688 C 108.34375 60.898438 104.261719 58.976562 98.976562 57.296875 C 99.457031 45.285156 97.296875 36.273438 92.609375 30.03125 C 86.726562 22.222656 76.875 18.617188 61.859375 18.738281 C 48.527344 18.617188 38.558594 22.101562 32.3125 29.070312 C 27.625 34.351562 24.984375 41.441406 24.625 50.328125 C 24.546875 52.53125 24.585938 54.738281 24.742188 56.9375 L 24.144531 56.9375 C 18.617188 58.617188 14.414062 60.660156 11.410156 62.941406 C 8.40625 65.222656 6.726562 68.226562 6.726562 71.230469 C 6.726562 74.234375 8.289062 76.996094 11.410156 79.515625 C 14.535156 82.039062 18.617188 83.84375 24.144531 85.523438 C 34.113281 88.648438 47.328125 90.328125 61.378906 90.328125 C 75.433594 90.328125 88.648438 88.648438 98.617188 85.523438 C 104.140625 83.84375 108.34375 81.800781 111.347656 79.515625 C 114.351562 77.234375 116.03125 74.234375 116.03125 71.230469 C 116.03125 68.226562 114.230469 65.703125 111.109375 63.179688 Z M 97.296875 67.023438 L 95.734375 66.425781 C 96.050781 65.914062 96.257812 65.339844 96.335938 64.742188 L 97.773438 64.742188 C 98.617188 64.984375 99.335938 65.34375 99.9375 65.703125 C 100.539062 66.0625 100.417969 66.304688 100.417969 66.425781 C 100.417969 66.546875 100.179688 66.785156 99.578125 66.90625 C 98.976562 67.023438 98.136719 67.265625 97.296875 67.023438 Z M 96.335938 71.46875 C 96.335938 72.070312 96.214844 72.3125 95.972656 72.429688 C 95.734375 72.550781 95.492188 72.429688 95.011719 72.070312 C 94.53125 71.710938 93.929688 70.988281 93.570312 70.148438 C 93.292969 69.621094 93.089844 69.054688 92.96875 68.46875 C 93.585938 68.316406 94.164062 68.03125 94.652344 67.625 L 94.773438 67.625 C 95.105469 68.03125 95.386719 68.472656 95.613281 68.945312 C 96.09375 69.90625 96.214844 70.75 96.214844 71.46875 Z M 88.40625 72.429688 C 88.046875 72.3125 87.925781 70.988281 88.765625 69.308594 C 89.015625 68.78125 89.335938 68.296875 89.726562 67.867188 C 90.203125 68.167969 90.734375 68.375 91.289062 68.46875 C 91.191406 69.097656 90.988281 69.707031 90.6875 70.269531 C 89.726562 71.949219 88.648438 72.671875 88.285156 72.429688 Z M 87.804688 64.742188 L 87.925781 64.742188 C 88.003906 65.339844 88.207031 65.914062 88.527344 66.425781 L 86.964844 67.023438 C 86.125 67.265625 85.28125 67.265625 84.683594 67.144531 C 84.082031 67.023438 83.960938 66.785156 83.84375 66.664062 C 83.722656 66.546875 83.960938 66.183594 84.320312 65.945312 C 84.683594 65.703125 85.644531 65.222656 86.484375 64.984375 Z M 85.523438 59.335938 L 86.484375 59.335938 C 87.085938 59.457031 87.925781 59.820312 88.527344 60.417969 L 89.367188 61.257812 C 88.878906 61.726562 88.511719 62.304688 88.285156 62.941406 L 87.203125 62.21875 C 85.523438 61.019531 85.042969 59.699219 85.28125 59.457031 Z M 92.25 56.09375 C 92.609375 56.09375 93.332031 57.175781 93.332031 58.976562 C 93.320312 59.339844 93.28125 59.703125 93.210938 60.058594 L 91.046875 60.058594 C 90.976562 59.703125 90.9375 59.339844 90.929688 58.976562 C 90.929688 57.414062 91.648438 56.214844 92.007812 56.214844 Z M 92.25 61.5 C 93.710938 61.5 94.890625 62.683594 94.890625 64.140625 C 94.890625 65.601562 93.710938 66.785156 92.25 66.785156 C 90.789062 66.785156 89.609375 65.601562 89.609375 64.140625 C 89.710938 62.839844 90.714844 61.785156 92.007812 61.621094 Z M 97.296875 61.980469 L 96.214844 62.703125 C 95.988281 62.0625 95.621094 61.488281 95.132812 61.019531 L 95.972656 60.179688 C 96.695312 59.578125 97.414062 59.21875 98.015625 59.097656 C 98.617188 58.976562 98.855469 59.097656 98.976562 59.21875 C 99.097656 59.335938 98.496094 61.019531 97.054688 62.101562 Z M 34.113281 30.75 C 39.878906 24.265625 49.25 21.019531 61.859375 21.261719 L 62.460938 21.261719 C 76.394531 21.261719 85.402344 24.503906 90.6875 31.589844 C 93.929688 35.796875 95.734375 41.441406 96.453125 48.527344 C 88.046875 51.769531 79.636719 54.054688 71.230469 55.015625 C 64.292969 55.867188 57.277344 55.910156 50.328125 55.132812 C 38.316406 53.8125 30.269531 50.328125 27.386719 48.886719 L 27.027344 48.886719 C 27.746094 41.320312 30.03125 35.195312 34.113281 30.75 Z M 27.027344 51.289062 C 30.507812 52.972656 38.558594 56.09375 50.089844 57.414062 C 57.234375 58.214844 64.453125 58.175781 71.589844 57.296875 C 79.757812 56.335938 88.046875 54.171875 96.214844 51.050781 L 96.214844 58.257812 L 94.890625 59.097656 L 94.773438 59.097656 C 94.773438 56.574219 93.691406 54.652344 92.128906 54.652344 C 90.570312 54.652344 89.488281 56.574219 89.488281 59.097656 L 89.367188 59.097656 C 88.527344 58.375 87.566406 57.898438 86.605469 57.65625 C 85.644531 57.414062 84.683594 57.65625 84.203125 58.257812 C 83.722656 58.859375 84.082031 61.5 86.003906 63.179688 C 84.921875 63.421875 83.960938 63.902344 83.242188 64.503906 C 82.519531 65.101562 82.039062 66.0625 82.160156 66.785156 C 82.28125 67.507812 83 68.105469 84.082031 68.46875 L 85.402344 68.46875 L 87.085938 68.226562 C 86.789062 68.875 86.585938 69.5625 86.484375 70.269531 C 80.996094 71.628906 75.414062 72.59375 69.789062 73.152344 C 66.183594 73.511719 62.460938 73.75 58.976562 73.75 C 48.40625 73.75 38.316406 72.070312 29.1875 68.828125 C 27.988281 68.46875 27.265625 67.144531 27.148438 65.585938 Z M 109.667969 77.835938 C 107.023438 80 102.941406 81.921875 97.773438 83.480469 C 88.046875 86.484375 75.074219 88.164062 61.257812 88.164062 C 47.445312 88.164062 34.472656 86.484375 24.742188 83.480469 C 19.460938 81.921875 15.496094 80 12.851562 77.835938 C 10.210938 75.671875 9.128906 73.75 9.128906 71.46875 C 9.128906 69.1875 10.328125 67.023438 12.851562 65.101562 C 15.375 63.179688 19.460938 61.140625 24.742188 59.457031 L 24.742188 65.945312 C 24.742188 68.46875 26.1875 70.628906 28.347656 71.351562 C 37.835938 74.710938 48.046875 76.394531 58.976562 76.394531 C 62.582031 76.394531 66.304688 76.15625 70.027344 75.792969 C 75.695312 75.234375 81.316406 74.269531 86.84375 72.910156 C 87.023438 73.277344 87.316406 73.574219 87.6875 73.75 L 88.527344 73.75 C 89.609375 73.75 90.6875 72.910156 91.648438 71.46875 L 92.609375 71.230469 C 93.015625 71.917969 93.546875 72.53125 94.171875 73.03125 C 94.773438 73.511719 95.375 73.75 95.972656 73.75 L 96.8125 73.511719 C 97.535156 73.152344 98.015625 72.3125 98.015625 71.230469 C 98.015625 70.148438 97.773438 69.429688 97.414062 68.585938 L 100.179688 68.585938 C 101.257812 68.347656 101.980469 67.746094 102.101562 66.90625 C 102.21875 66.0625 101.859375 65.34375 101.019531 64.625 C 100.347656 64.074219 99.570312 63.664062 98.734375 63.421875 L 98.734375 62.703125 C 99.578125 61.859375 100.058594 61.019531 100.296875 60.179688 C 104.261719 61.621094 107.503906 63.179688 109.667969 64.984375 C 111.828125 66.785156 113.390625 69.066406 113.390625 71.351562 C 113.390625 73.632812 112.070312 75.914062 109.667969 77.835938 Z M 109.667969 77.835938 "/>
<path style=" stroke:none;fill-rule:nonzero;fill:rgb(99.215686%,80.392158%,37.64706%);fill-opacity:1;" d="M 50.328125 55.132812 C 57.277344 55.910156 64.292969 55.867188 71.230469 55.015625 C 79.636719 54.054688 88.046875 51.769531 96.453125 48.527344 C 95.851562 41.441406 93.929688 35.796875 90.6875 31.589844 C 85.28125 24.503906 76.394531 21.261719 62.460938 21.261719 L 61.859375 21.261719 C 49.25 21.140625 39.878906 24.382812 34.113281 30.75 C 30.148438 35.195312 27.746094 41.320312 27.148438 48.765625 L 27.507812 48.765625 C 30.269531 50.328125 38.316406 53.691406 50.328125 55.132812 Z M 50.328125 55.132812 "/>
<path style=" stroke:none;fill-rule:nonzero;fill:rgb(97.647059%,46.666667%,26.666668%);fill-opacity:1;" d="M 27.148438 65.945312 C 27.148438 67.386719 27.988281 68.707031 29.1875 69.1875 C 38.316406 72.429688 48.40625 74.113281 58.976562 74.113281 C 62.460938 74.113281 66.183594 73.871094 69.789062 73.511719 C 75.414062 72.953125 80.996094 71.988281 86.484375 70.628906 C 86.585938 69.921875 86.789062 69.234375 87.085938 68.585938 L 85.402344 68.828125 L 84.082031 68.828125 C 83 68.585938 82.28125 67.984375 82.160156 67.144531 C 82.039062 66.304688 82.398438 65.585938 83.242188 64.863281 C 84.082031 64.140625 84.921875 63.78125 86.003906 63.542969 C 83.960938 61.980469 83.242188 59.820312 84.203125 58.617188 C 85.164062 57.414062 85.644531 57.777344 86.605469 58.015625 C 87.566406 58.257812 88.40625 58.738281 89.367188 59.457031 L 89.488281 59.457031 C 89.488281 56.9375 90.570312 55.015625 92.128906 55.015625 C 93.691406 55.015625 94.773438 56.9375 94.773438 59.457031 L 94.890625 59.457031 L 96.214844 58.617188 L 96.214844 51.171875 C 88.046875 54.292969 79.757812 56.335938 71.589844 57.414062 C 64.453125 58.296875 57.234375 58.335938 50.089844 57.535156 C 38.558594 56.214844 30.628906 52.972656 27.027344 51.410156 Z M 27.148438 65.945312 "/>
<path style=" stroke:none;fill-rule:nonzero;fill:rgb(100%,100%,100%);fill-opacity:1;" d="M 88.046875 62.820312 C 88.269531 62.183594 88.640625 61.609375 89.125 61.140625 L 88.285156 60.296875 C 87.566406 59.699219 86.84375 59.335938 86.242188 59.21875 L 85.28125 59.21875 C 85.042969 59.457031 85.523438 60.78125 86.84375 61.859375 Z M 83.722656 66.664062 C 83.722656 66.785156 83.960938 67.023438 84.5625 67.144531 C 85.164062 67.265625 86.003906 67.265625 86.84375 67.144531 L 88.40625 66.546875 C 88.089844 66.035156 87.882812 65.460938 87.804688 64.863281 L 86.242188 64.863281 C 85.402344 65.101562 84.683594 65.464844 84.082031 65.824219 C 83.480469 66.183594 83.601562 66.546875 83.722656 66.664062 Z M 91.046875 68.46875 C 90.492188 68.375 89.960938 68.167969 89.488281 67.867188 C 89.097656 68.296875 88.773438 68.78125 88.527344 69.308594 C 87.6875 70.988281 87.925781 72.3125 88.164062 72.429688 C 88.40625 72.550781 89.609375 71.949219 90.449219 70.269531 C 90.746094 69.707031 90.949219 69.097656 91.046875 68.46875 Z M 94.773438 67.746094 L 94.652344 67.746094 C 94.164062 68.148438 93.585938 68.4375 92.96875 68.585938 C 93.089844 69.171875 93.292969 69.738281 93.570312 70.269531 C 93.929688 71.109375 94.53125 71.828125 95.011719 72.191406 C 95.492188 72.550781 95.851562 72.550781 95.972656 72.550781 C 96.09375 72.550781 96.335938 72.191406 96.335938 71.589844 C 96.335938 70.988281 96.09375 70.027344 95.734375 69.1875 C 95.480469 68.667969 95.15625 68.179688 94.773438 67.746094 Z M 99.578125 67.144531 C 100.058594 67.023438 100.296875 66.785156 100.417969 66.664062 C 100.539062 66.546875 100.296875 66.183594 99.9375 65.945312 C 99.578125 65.703125 98.617188 65.222656 97.773438 64.984375 L 96.214844 64.984375 C 96.136719 65.582031 95.929688 66.152344 95.613281 66.664062 L 97.175781 67.265625 C 98.136719 67.265625 98.976562 67.265625 99.578125 67.144531 Z M 98.734375 59.457031 C 98.617188 59.335938 98.375 59.335938 97.773438 59.335938 C 97.175781 59.335938 96.335938 59.820312 95.734375 60.417969 L 94.890625 61.257812 C 95.378906 61.726562 95.75 62.304688 95.972656 62.941406 L 97.054688 62.21875 C 98.496094 61.019531 98.976562 59.699219 98.734375 59.457031 Z M 90.929688 59.21875 C 90.9375 59.582031 90.976562 59.941406 91.046875 60.300781 L 93.089844 60.296875 C 93.160156 59.941406 93.203125 59.582031 93.210938 59.21875 C 93.210938 57.414062 92.492188 56.335938 92.128906 56.335938 C 91.769531 56.335938 90.929688 57.414062 90.929688 59.21875 Z M 90.929688 59.21875 "/>
<path style=" stroke:none;fill-rule:nonzero;fill:rgb(99.215686%,80.392158%,37.64706%);fill-opacity:1;" d="M 92.007812 67.023438 C 93.46875 67.023438 94.652344 65.84375 94.652344 64.382812 C 94.652344 62.921875 93.46875 61.742188 92.007812 61.742188 C 90.550781 61.742188 89.367188 62.921875 89.367188 64.382812 C 89.429688 65.816406 90.578125 66.964844 92.007812 67.023438 Z M 92.007812 67.023438 "/>
</g>
</svg>
